Coordinates
version=1
nRows=22
nColumns=24
inDegrees=yes

Units are S.I. units (second, meters, Newtons, ...)
Angles are in degrees.

endheader
time	pelvis_tilt	pelvis_list	pelvis_rotation	pelvis_tx	pelvis_ty	pelvis_tz	hip_flexion_r	hip_adduction_r	hip_rotation_r	knee_angle_r	ankle_angle_r	subtalar_angle_r	mtp_angle_r	hip_flexion_l	hip_adduction_l	hip_rotation_l	knee_angle_l	ankle_angle_l	subtalar_angle_l	mtp_angle_l	lumbar_extension	lumbar_bending	lumbar_rotation
      0.57500000	     -1.46620009	      5.39104173	      1.99427925	     -0.86057531	      0.99459325	      0.27410163	     25.42090900	     -6.24674798	     -6.49914069	      1.37971258	      1.08214930	     -7.28366364	     -8.89229488	    -11.97431329	      6.66052618	     -5.45817492	     -6.37133452	     12.62696458	     -7.70068668	    -15.01114955	     -8.06007574	     -6.02253221	     -0.74699597
      0.57916667	     -1.26338930	      5.21293753	      2.07577836	     -0.85477425	      0.99417244	      0.27414757	     25.27971748	     -6.08330707	     -6.46615981	      0.77198603	      0.89150927	     -7.56282969	     -8.78482578	    -12.34414118	      6.40703271	     -5.35977560	     -6.78953528	     12.84022233	     -7.71098670	    -15.05845918	     -8.27648218	     -5.72211240	     -0.84323674
      0.58333333	     -1.07414183	      5.04209702	      2.14050763	     -0.84894105	      0.99375073	      0.27425044	     25.16480391	     -5.91656226	     -6.43454583	      0.10319634	      0.70319349	     -7.83382782	     -8.69285282	    -12.69251256	      6.16256023	     -5.25771895	     -7.21904762	     13.06181498	     -7.72776931	    -15.08747471	     -8.47017869	     -5.44728799	     -0.93438787
      0.58750000	     -0.85589695	      4.85522380	      2.21698226	     -0.84307151	      0.99343112	      0.27435364	     24.98793546	     -5.73266636	     -6.40481012	     -0.54080925	      0.41076592	     -8.17550645	     -8.57293997	    -13.04705409	      5.88989204	     -5.19135188	     -7.69719351	     13.20135187	     -7.74886657	    -15.11465053	     -8.69617761	     -5.12395720	     -1.05430897
      0.59166667	     -0.64465350	      4.67159778	      2.29664010	     -0.83718591	      0.99312938	      0.27448098	     24.82069444	     -5.55000141	     -6.40006999	     -1.21706799	      0.09916553	     -8.52698098	     -8.46474907	    -13.39130180	      5.61849536	     -5.07575629	     -8.18425647	     13.37512019	     -7.76605173	    -15.12843221	     -8.91123445	     -4.83184777	     -1.15625223
      0.59583333	     -0.42626091	      4.49232392	      2.36390291	     -0.83128967	      0.99287896	      0.27466480	     24.63539061	     -5.35992771	     -6.37178715	     -1.88113312	     -0.29315792	     -8.93218815	     -8.35222495	    -13.71805694	      5.34690306	     -4.99840092	     -8.71499653	     13.49050670	     -7.78430239	    -15.13315961	     -9.13437176	     -4.53145536	     -1.26870769
      0.60000000	     -0.20162806	      4.28524053	      2.44565570	     -0.82529747	      0.99271473	      0.27486502	     24.40125519	     -5.13982762	     -6.35991690	     -2.48735857	     -0.76351948	     -9.37631417	     -8.19528794	    -14.03364167	      5.03128454	     -4.96234020	     -9.28092368	     13.51501467	     -7.75523120	    -15.12766324	     -9.35948817	     -4.19611281	     -1.40142958
      0.60416667	      0.00843002	      4.10679291	      2.51030315	     -0.81934113	      0.99255169	      0.27511840	     24.19088866	     -4.93902753	     -6.32521606	     -3.10166961	     -1.28163668	     -9.85073026	     -8.03763994	    -14.31388341	      4.74896006	     -4.90730346	     -9.88040573	     13.56359581	     -7.74238263	    -15.10753993	     -9.56437989	     -3.89523101	     -1.49909243
      0.60833333	      0.22677559	      3.91348788	      2.56272985	     -0.81333652	      0.99245059	      0.27542944	     23.95193181	     -4.71182718	     -6.28590642	     -3.67759948	     -1.87029059	    -10.35723734	     -7.86134048	    -14.59087808	      4.44607631	     -4.88279996	    -10.50671948	     13.56689027	     -7.71810446	    -15.06995985	     -9.77328715	     -3.58322697	     -1.59761635
      0.61250000	      0.48472128	      3.70497560	      2.56293874	     -0.80729812	      0.99244506	      0.27587963	     23.66185353	     -4.44090225	     -6.20974483	     -4.21903381	     -2.53626285	    -10.86942102	     -7.57107107	    -14.89777687	      4.12639729	     -4.94247453	    -11.15406297	     13.57682917	     -7.63000809	    -14.98104173	    -10.02770072	     -3.26650174	     -1.70178082
      0.61666667	      0.57338682	      3.57907277	      2.63158352	     -0.80136444	      0.99224304	      0.27619296	     23.57039963	     -4.29551551	     -6.18730564	     -4.79214521	     -3.23434193	    -11.29520962	     -7.49032203	    -14.96792343	      3.89864495	     -4.83175826	    -11.90930058	     13.53005672	     -7.69833513	    -14.94486136	    -10.10798051	     -3.05660481	     -1.69536482
      0.62083333	      0.75776695	      3.35953341	      2.64157898	     -0.79522792	      0.99225351	      0.27669833	     23.32889475	     -4.00752207	     -6.11010041	     -5.28203069	     -3.98602287	    -12.01634522	     -7.32644618	    -15.15133682	      3.55845711	     -4.89542198	    -12.63631986	     13.38376979	     -7.62593378	    -14.85883864	    -10.25777078	     -2.73408050	     -1.80531057
      0.62500000	      1.00283936	      3.14404125	      2.54835926	     -0.78913400	      0.99235271	      0.27745553	     23.02538265	     -3.67699535	     -5.91349158	     -5.72932328	     -4.79677719	    -12.60408473	     -6.99659957	    -15.36600720	      3.22374547	     -5.14156139	    -13.43595875	     13.27804342	     -7.42647913	    -14.64811550	    -10.49324500	     -2.43006109	     -1.81950649
      0.62916667	      1.08979966	      2.97781262	      2.56183389	     -0.78305591	      0.99231665	      0.27793987	     22.89566758	     -3.46041658	     -5.86367668	     -6.21631444	     -5.56429245	    -13.16209983	     -6.84122264	    -15.37511215	      2.94792604	     -5.14510677	    -14.29041707	     13.05790305	     -7.45292800	    -14.52261070	    -10.54189790	     -2.17826727	     -1.78223802
      0.63333333	      1.28416698	      2.76640312	      2.40261729	     -0.77693759	      0.99241293	      0.27888940	     22.65480887	     -3.10708564	     -5.60764498	     -6.65992762	     -6.42038742	    -13.77731777	     -6.48942486	    -15.48797636	      2.62203095	     -5.47129748	    -15.18271696	     12.86414355	     -7.23521465	    -14.18902167	    -10.72007861	     -1.90740374	     -1.75351434
      0.63750000	      1.33582091	      2.59672859	      2.38722146	     -0.77082707	      0.99243186	      0.27944231	     22.55172793	     -2.88194717	     -5.54126605	     -7.12331484	     -7.16588112	    -14.27255636	     -6.35074761	    -15.39911581	      2.34381893	     -5.52345429	    -16.14295584	     12.52929446	     -7.30909097	    -14.02254333	    -10.72438640	     -1.65711920	     -1.68164593
      0.64166667	      1.42307503	      2.39911763	      2.26760704	     -0.76467726	      0.99251098	      0.28027690	     22.41403223	     -2.57578105	     -5.36070136	     -7.56863698	     -7.94561224	    -14.82915119	     -6.18499605	    -15.32958892	      2.03540290	     -5.76166252	    -17.14585612	     12.18334029	     -7.25124777	    -13.78739790	    -10.77107730	     -1.39857828	     -1.63529717
      0.64583333	      1.50547357	      2.18929066	      2.11469731	     -0.75850584	      0.99261609	      0.28117713	     22.28088514	     -2.24894598	     -5.16025521	     -8.01494817	     -8.67126684	    -15.31249532	     -6.02168117	    -15.22683912	      1.71480264	     -6.04824908	    -18.20529147	     11.78707022	     -7.18407026	    -13.50951731	    -10.81290325	     -1.13310076	     -1.51454502
      0.65000000	      1.60079646	      1.99595432	      1.78785931	     -0.75236503	      0.99268114	      0.28254998	     22.18248753	     -1.85799316	     -4.76974803	     -8.51707199	     -9.37869168	    -15.82643835	     -5.67448166	    -15.12261939	      1.41385153	     -6.59630808	    -19.30795479	     11.40037476	     -6.89840592	    -12.79865157	    -10.88438028	     -0.94626880	     -1.26759045
      0.65416667	      1.54065456	      1.85762600	      1.51879535	     -0.74617803	      0.99260971	      0.28365321	     22.26300404	     -1.57766789	     -4.48657472	     -9.08589213	     -9.91560088	    -16.21739597	     -2.45677191	    -14.82686613	      1.20090794	     -6.94420958	    -20.41043264	     10.65973909	     -7.16091989	     -4.16660220	    -10.75410124	     -0.79451324	     -0.94551403
      0.65833333	      1.62712713	      1.59212972	      1.45269459	     -0.73996329	      0.99292610	      0.28428261	     22.08107899	     -1.26398233	     -4.50213784	     -9.51188853	    -10.43758136	    -16.40139244	     -2.48208051	    -14.60684709	      0.79204153	     -7.16023540	    -21.67316946	     10.14202372	     -7.14103260	     -4.10611687	    -10.79591782	     -0.43269433	     -0.96358250
      0.66250000	      1.68587849	      1.35390157	      1.23420121	     -0.73377699	      0.99315767	      0.28528857	     21.97156896	     -0.90614337	     -4.32140040	     -9.99511827	    -10.92694656	    -16.72084823	     -2.52118680	    -14.34611881	      0.42885370	     -7.54173403	    -22.95973838	      9.52250467	     -7.14857740	     -3.96393047	    -10.81797718	     -0.14373981	     -0.83692214
